<svg width="50" height="50" viewBox="0 0 50 50" fill="none" xmlns="http://www.w3.org/2000/svg">
<g clip-path="url(#clip0_522_8983)">
<path d="M30.8553 25.2681L17.3169 11.7229H11.6365V37.3304C11.7205 37.3108 11.8089 37.3229 11.8845 37.3644C12.2831 37.5781 12.6468 37.8514 12.9632 38.1746C13.0158 38.229 13.0651 38.2834 13.111 38.336C13.3421 38.5942 13.5412 38.8793 13.7038 39.1854C13.7396 39.2434 13.7553 39.3115 13.7486 39.3794C13.7418 39.4472 13.713 39.5109 13.6664 39.5608C13.4547 39.7374 13.2406 39.9175 13.0243 40.1009C13.3074 40.5775 13.5202 41.0924 13.6562 41.6298C13.928 41.606 14.1947 41.5839 14.4614 41.5584C14.5257 41.5613 14.5875 41.5839 14.6386 41.6231C14.6896 41.6623 14.7274 41.7162 14.7468 41.7775C14.902 42.2095 14.9791 42.6656 14.9744 43.1246C14.9705 43.5569 14.8929 43.9855 14.7451 44.3918C14.6907 44.5447 14.5361 44.5753 14.4614 44.6109L13.6579 44.5362C13.5212 45.0733 13.3084 45.5881 13.026 46.065L13.1568 46.1771L13.6443 46.5848C13.6884 46.6322 13.7167 46.6922 13.7252 46.7564C13.7337 46.8206 13.7221 46.8859 13.6919 46.9432C13.4972 47.3583 13.2297 47.7351 12.902 48.0558C12.5931 48.3591 12.2346 48.6073 11.842 48.7897C11.7831 48.8084 11.7208 48.8141 11.6594 48.8061C11.5981 48.7982 11.5392 48.7769 11.487 48.7438C11.3172 48.5366 11.1473 48.3259 10.9672 48.117C10.4904 48.3987 9.97552 48.6104 9.43842 48.7455C9.4605 49.019 9.48429 49.2908 9.50977 49.5592C9.507 49.6233 9.48444 49.685 9.44521 49.7358C9.40597 49.7866 9.35198 49.824 9.29064 49.8428C8.44649 50.1512 7.52052 50.1512 6.67637 49.8428C6.52349 49.7885 6.49292 49.6339 6.45725 49.5592C6.48443 49.2891 6.5099 49.0156 6.53369 48.7404C6.00201 48.6027 5.49247 48.3905 5.02017 48.1102C4.84011 48.3208 4.66344 48.5332 4.49018 48.7438C4.44217 48.787 4.38216 48.8145 4.31813 48.8227C4.2541 48.8309 4.18909 48.8194 4.13176 48.7897C3.71647 48.5944 3.33917 48.327 3.01743 47.9998C2.71465 47.6911 2.46651 47.3333 2.2836 46.9415C2.26493 46.8822 2.25951 46.8195 2.26773 46.7579C2.27595 46.6962 2.2976 46.6371 2.33116 46.5848C2.5418 46.4149 2.75583 46.2349 2.96987 46.0531C2.68979 45.5797 2.47818 45.069 2.34136 44.5362L1.48353 44.616C1.41566 44.6131 1.35059 44.5881 1.29818 44.5449C1.24577 44.5017 1.20886 44.4426 1.19305 44.3765C0.93565 43.5386 0.93565 42.6427 1.19305 41.8047C1.20913 41.7383 1.2463 41.6789 1.29897 41.6355C1.35165 41.592 1.41699 41.5667 1.48522 41.5635C1.7672 41.5907 2.05598 41.6162 2.34475 41.6382C2.48083 41.1057 2.69248 40.5955 2.97326 40.123C2.75244 39.9362 2.52991 39.751 2.31078 39.571C2.26488 39.5212 2.23628 39.4579 2.22924 39.3906C2.2222 39.3232 2.2371 39.2554 2.27171 39.1972C2.48434 38.7974 2.75768 38.433 3.08198 38.1169C3.3005 37.9021 3.54138 37.7113 3.80052 37.5478V3.91406H20.1384L30.8553 14.6106V25.2681ZM6.71035 39.8767L6.6458 39.9039C5.82721 40.255 5.17514 40.9077 4.82482 41.7266L4.79934 41.7843C4.46757 42.6113 4.46757 43.5343 4.79934 44.3612C4.80953 44.3867 4.81803 44.4105 4.82822 44.4343C5.15142 45.1858 5.72868 45.7998 6.45894 46.1686C6.52179 46.2026 6.58635 46.2315 6.6543 46.2603L6.71374 46.2841C7.5414 46.6182 8.46638 46.6182 9.29403 46.2841L9.36198 46.2569C9.42993 46.2281 9.49618 46.1975 9.56073 46.1635C10.2903 45.7957 10.8666 45.1821 11.1881 44.4309L11.2186 44.3595C11.5539 43.5315 11.5539 42.6055 11.2186 41.7775C11.2117 41.7573 11.2038 41.7375 11.1949 41.7181C10.8427 40.8992 10.1896 40.2468 9.37048 39.8954L9.29913 39.8665C8.47265 39.5325 7.54872 39.5325 6.72224 39.8665L6.71035 39.8767Z" fill="url(#paint0_linear_522_8983)"/>
<path d="M19.1562 24.8025L32.6947 38.3427H38.3751V12.7419C38.291 12.7616 38.2027 12.7495 38.1271 12.708C37.7281 12.4947 37.3643 12.2214 37.0484 11.8977C36.9957 11.845 36.9465 11.7907 36.9006 11.738C36.6702 11.4793 36.4712 11.1942 36.3078 10.8887C36.2721 10.8303 36.2565 10.7619 36.2632 10.6939C36.27 10.6258 36.2987 10.5618 36.3451 10.5116C36.5575 10.3417 36.7715 10.1566 36.9873 9.9714C36.7041 9.4949 36.4912 8.97998 36.3553 8.44259C36.0836 8.46637 35.8169 8.48845 35.5502 8.51393C35.4857 8.51089 35.4237 8.48807 35.3726 8.44856C35.3216 8.40905 35.2839 8.35477 35.2648 8.2931C35.1097 7.86171 35.0326 7.40616 35.0372 6.94776C35.0409 6.51483 35.1185 6.08571 35.2665 5.67885C35.3209 5.52766 35.4754 5.49709 35.5502 5.46141L36.3536 5.53615C36.4902 4.999 36.703 4.48417 36.9856 4.00734L36.8548 3.89693L36.3672 3.48755C36.3231 3.44049 36.2947 3.3808 36.2862 3.31683C36.2777 3.25285 36.2894 3.18782 36.3197 3.13083C36.7002 2.3167 37.355 1.66243 38.1695 1.28267C38.2285 1.26389 38.2908 1.25827 38.3521 1.26619C38.4135 1.27412 38.4723 1.2954 38.5246 1.32853C38.6944 1.53804 38.8677 1.74698 39.0443 1.95535C39.5215 1.67434 40.0363 1.46271 40.5732 1.32683C40.5511 1.05335 40.5273 0.783262 40.5018 0.513172C40.5046 0.449051 40.5271 0.387358 40.5664 0.336566C40.6056 0.285773 40.6596 0.24837 40.7209 0.229491C41.5655 -0.0764971 42.4906 -0.0764971 43.3352 0.229491C43.4881 0.283849 43.5187 0.438431 43.5543 0.513172C43.5271 0.78496 43.5017 1.05674 43.4779 1.33193C44.0093 1.47041 44.5188 1.68253 44.9914 1.96214C45.1715 1.75151 45.3481 1.5403 45.5214 1.32853C45.5694 1.28538 45.6294 1.25787 45.6935 1.24968C45.7575 1.24148 45.8225 1.25299 45.8798 1.28267C46.2948 1.47849 46.672 1.74587 46.9941 2.07256C47.2974 2.38146 47.5456 2.73995 47.728 3.13253C47.7465 3.19158 47.7518 3.25398 47.7436 3.31532C47.7354 3.37667 47.7138 3.43546 47.6804 3.48755C47.4698 3.65742 47.2557 3.83918 47.0417 4.01924C47.3221 4.49311 47.5337 5.00443 47.6702 5.53785L48.5196 5.45801C48.5872 5.46085 48.6521 5.48557 48.7045 5.52845C48.7569 5.57134 48.7939 5.63008 48.81 5.69583C49.0674 6.53377 49.0674 7.42968 48.81 8.26762C48.794 8.33419 48.7569 8.39381 48.7043 8.43758C48.6516 8.48135 48.5862 8.50694 48.5179 8.51053C48.2359 8.48336 47.9471 8.45787 47.6583 8.43579C47.5223 8.96775 47.3106 9.47744 47.0298 9.94931C47.2507 10.1379 47.4732 10.3213 47.6923 10.5014C47.7383 10.5514 47.767 10.615 47.7741 10.6826C47.7811 10.7502 47.7661 10.8183 47.7314 10.8768C47.5186 11.276 47.2453 11.6399 46.9211 11.9554C46.7026 12.1707 46.4617 12.3621 46.2026 12.5262V46.16H29.8681L19.1562 35.4532V24.8025ZM43.3012 10.1939L43.3658 10.1667C44.1841 9.81437 44.8359 9.16133 45.1868 8.34237L45.2122 8.28461C45.544 7.45769 45.544 6.53465 45.2122 5.70772C45.202 5.68224 45.1936 5.65846 45.1834 5.63468C44.8606 4.88325 44.2831 4.26972 43.5526 3.90203C43.4898 3.86805 43.4252 3.83918 43.3573 3.8103L43.2978 3.78652C42.4706 3.45028 41.5448 3.45028 40.7175 3.78652L40.6496 3.8137C40.5817 3.84258 40.5154 3.87315 40.4508 3.90712C39.721 4.27385 39.1446 4.88703 38.8235 5.63807L38.7929 5.70942C38.6287 6.11822 38.5445 6.55476 38.5449 6.99532C38.5443 7.43986 38.6308 7.8802 38.7997 8.2914C38.8066 8.31162 38.8146 8.33146 38.8235 8.35086C39.1762 9.16975 39.829 9.82256 40.6479 10.1752L40.7192 10.2041C41.5462 10.5359 42.4692 10.5359 43.2961 10.2041L43.3012 10.1939Z" fill="url(#paint1_linear_522_8983)"/>
<path d="M38.3672 38.3333H40.0302C41.666 38.3333 43.2348 37.6834 44.3915 36.5267C45.5482 35.37 46.1981 33.8012 46.1981 32.1654V24.0117H38.3672V38.3333Z" fill="url(#paint2_linear_522_8983)"/>
<path d="M46.1981 31.3359V32.1683C46.1981 33.8041 45.5482 35.3729 44.3915 36.5296C43.2348 37.6863 41.666 38.3362 40.0302 38.3362H38.3672V37.5021H40.0302C40.8401 37.5024 41.6421 37.343 42.3904 37.0332C43.1387 36.7235 43.8187 36.2693 44.3914 35.6967C44.9642 35.1241 45.4186 34.4443 45.7285 33.696C46.0385 32.9478 46.1981 32.1458 46.1981 31.3359V31.3359Z" fill="url(#paint3_linear_522_8983)"/>
<path d="M11.6512 11.7891H9.9882C9.1783 11.7888 8.3763 11.9482 7.62798 12.2579C6.87967 12.5677 6.19971 13.0219 5.62695 13.5945C5.05419 14.1671 4.59983 14.8469 4.28985 15.5952C3.97986 16.3434 3.82031 17.1454 3.82031 17.9553V26.1089H11.6512V11.7891Z" fill="url(#paint4_linear_522_8983)"/>
<path d="M3.82031 18.7854V17.953C3.82031 16.3172 4.47014 14.7484 5.62685 13.5917C6.78355 12.435 8.35238 11.7852 9.9882 11.7852H11.6512V12.6192H9.9882C9.1783 12.619 8.3763 12.7783 7.62798 13.0881C6.87967 13.3979 6.19971 13.852 5.62695 14.4246C5.05419 14.9972 4.59983 15.6771 4.28985 16.4253C3.97986 17.1735 3.82031 17.9755 3.82031 18.7854V18.7854Z" fill="url(#paint5_linear_522_8983)"/>
</g>
<defs>
<linearGradient id="paint0_linear_522_8983" x1="15.6845" y1="4.33703" x2="16.1125" y2="46.9245" gradientUnits="userSpaceOnUse">
<stop stop-color="#02E0E7"/>
<stop offset="0.11" stop-color="#02D7E8"/>
<stop offset="0.28" stop-color="#03BEEA"/>
<stop offset="0.51" stop-color="#0496EE"/>
<stop offset="0.77" stop-color="#055EF3"/>
<stop offset="1" stop-color="#0626F8"/>
</linearGradient>
<linearGradient id="paint1_linear_522_8983" x1="33.9092" y1="4.15343" x2="34.3373" y2="46.7426" gradientUnits="userSpaceOnUse">
<stop stop-color="#02E0E7"/>
<stop offset="0.11" stop-color="#02D7E8"/>
<stop offset="0.28" stop-color="#03BEEA"/>
<stop offset="0.51" stop-color="#0496EE"/>
<stop offset="0.77" stop-color="#055EF3"/>
<stop offset="1" stop-color="#0626F8"/>
</linearGradient>
<linearGradient id="paint2_linear_522_8983" x1="42.1264" y1="22.7853" x2="42.4117" y2="38.1481" gradientUnits="userSpaceOnUse">
<stop stop-opacity="0"/>
<stop offset="0.96" stop-opacity="0.28"/>
<stop offset="0.99" stop-opacity="0.3"/>
</linearGradient>
<linearGradient id="paint3_linear_522_8983" x1="42.2096" y1="30.8586" x2="42.3455" y2="38.2258" gradientUnits="userSpaceOnUse">
<stop stop-opacity="0"/>
<stop offset="0.96" stop-opacity="0.28"/>
<stop offset="0.99" stop-opacity="0.3"/>
</linearGradient>
<linearGradient id="paint4_linear_522_8983" x1="7.89034" y1="27.3336" x2="7.60496" y2="11.9725" gradientUnits="userSpaceOnUse">
<stop stop-opacity="0"/>
<stop offset="0.96" stop-opacity="0.28"/>
<stop offset="0.99" stop-opacity="0.3"/>
</linearGradient>
<linearGradient id="paint5_linear_522_8983" x1="7.8088" y1="19.2627" x2="7.67121" y2="11.8939" gradientUnits="userSpaceOnUse">
<stop stop-opacity="0"/>
<stop offset="0.96" stop-opacity="0.28"/>
<stop offset="0.99" stop-opacity="0.3"/>
</linearGradient>
<clipPath id="clip0_522_8983">
<rect width="50" height="50" fill="white"/>
</clipPath>
</defs>
</svg>
